<?xml version="1.0" encoding="UTF-8" standalone="no"?>
<!-- Created with Inkscape (http://www.inkscape.org/) -->

<svg
   xmlns:dc="http://purl.org/dc/elements/1.1/"
   xmlns:cc="http://creativecommons.org/ns#"
   xmlns:rdf="http://www.w3.org/1999/02/22-rdf-syntax-ns#"
   xmlns:svg="http://www.w3.org/2000/svg"
   xmlns="http://www.w3.org/2000/svg"
   xmlns:xlink="http://www.w3.org/1999/xlink"
   xmlns:sodipodi="http://sodipodi.sourceforge.net/DTD/sodipodi-0.dtd"
   xmlns:inkscape="http://www.inkscape.org/namespaces/inkscape"
   id="svg3107"
   sodipodi:docname="clean.svg"
   viewBox="0 0 777.42531 777.39278"
   version="1.1"
   inkscape:version="0.48.5 r10040"
   width="100%"
   height="100%">
  <defs
     id="defs3109">
    <linearGradient
       id="linearGradient3909"
       inkscape:collect="always">
      <stop
         id="stop3911"
         style="stop-color:#b4b4b4"
         offset="0" />
      <stop
         id="stop3913"
         style="stop-color:#b4b4b4;stop-opacity:0"
         offset="1" />
    </linearGradient>
    <filter
       id="filter3917"
       inkscape:collect="always"
       color-interpolation-filters="sRGB">
      <feGaussianBlur
         id="feGaussianBlur3919"
         stdDeviation="9.0679289"
         inkscape:collect="always" />
    </filter>
    <clipPath
       id="clipPath3925"
       clipPathUnits="userSpaceOnUse">
      <path
         id="path3927"
         sodipodi:nodetypes="cccsscc"
         style="fill:url(#linearGradient3929);stroke:#5a5a5a;stroke-width:5"
         inkscape:connector-curvature="0"
         d="m -53.102,272.36 c 53.533,-199.74 337.18,-203.02 369.06,0 l 4.0406,461.67 c 0,2.2385 -2.8517,2.1439 -4.0406,4.0406 -41.116,65.594 -326.99,64.843 -369.06,0 -1.2183,-1.8779 -4.0406,-1.8021 -4.0406,-4.0406 z" />
    </clipPath>
    <linearGradient
       id="linearGradient3929"
       y2="474.16"
       xlink:href="#linearGradient3909"
       gradientUnits="userSpaceOnUse"
       x2="-318.79999"
       gradientTransform="translate(640,-20)"
       y1="474.16"
       x1="-698.34003"
       inkscape:collect="always" />
    <filter
       id="filter3948"
       inkscape:collect="always"
       color-interpolation-filters="sRGB">
      <feGaussianBlur
         id="feGaussianBlur3950"
         stdDeviation="0.23602485"
         inkscape:collect="always" />
    </filter>
    <clipPath
       id="clipPath4263"
       clipPathUnits="userSpaceOnUse">
      <path
         id="path4265"
         sodipodi:nodetypes="sssss"
         style="fill:#383705;stroke:#505041;stroke-width:8.28709984"
         inkscape:connector-curvature="0"
         d="m -256.37,559.3 c -2.4206,22.239 -179.9,29.863 -401.83,29.863 -221.92,0 -384.88,-4.178 -384.88,-36.755 0,-58.994 138.65,-175.65 384.88,-176.88 284.73,-1.4179 408.24,124.86 401.83,183.77 z" />
    </clipPath>
    <clipPath
       id="clipPath4259"
       clipPathUnits="userSpaceOnUse">
      <path
         id="path4261"
         sodipodi:nodetypes="sssss"
         style="fill:#383705;stroke:#505041;stroke-width:8.28709984"
         inkscape:connector-curvature="0"
         d="m -256.37,559.3 c -2.4206,22.239 -179.9,29.863 -401.83,29.863 -221.92,0 -384.88,-4.178 -384.88,-36.755 0,-58.994 138.65,-175.65 384.88,-176.88 284.73,-1.4179 408.24,124.86 401.83,183.77 z" />
    </clipPath>
    <clipPath
       id="clipPath4255"
       clipPathUnits="userSpaceOnUse">
      <path
         id="path4257"
         sodipodi:nodetypes="sssss"
         style="fill:#383705;stroke:#505041;stroke-width:14.19999981"
         inkscape:connector-curvature="0"
         d="m -169.75,439.4 c -2.8571,55.321 -212.34,74.286 -474.29,74.286 -261.94,0 -454.29,-10.393 -454.29,-91.429 0,-146.75 163.65,-436.95 454.29,-440 336.07,-3.5271 481.85,310.59 474.29,457.14 z" />
    </clipPath>
    <linearGradient
       id="linearGradient4177"
       inkscape:collect="always">
      <stop
         id="stop4179"
         style="stop-color:#a29984"
         offset="0" />
      <stop
         id="stop4181"
         style="stop-color:#a29984;stop-opacity:0"
         offset="1" />
    </linearGradient>
    <linearGradient
       id="linearGradient4637"
       y2="246.63"
       xlink:href="#linearGradient4177"
       gradientUnits="userSpaceOnUse"
       x2="-127.86"
       y1="246.63"
       x1="-1131.9"
       inkscape:collect="always" />
    <linearGradient
       id="linearGradient4777"
       y2="477"
       xlink:href="#linearGradient3909"
       gradientUnits="userSpaceOnUse"
       x2="-474.45001"
       gradientTransform="translate(637.14,-17.143)"
       y1="474.16"
       x1="-698.34003"
       inkscape:collect="always" />
    <linearGradient
       id="linearGradient4846"
       y2="474.16"
       xlink:href="#linearGradient3909"
       gradientUnits="userSpaceOnUse"
       x2="-476.01001"
       gradientTransform="translate(637.14,-17.143)"
       y1="474.16"
       x1="-698.34003"
       inkscape:collect="always" />
    <linearGradient
       inkscape:collect="always"
       xlink:href="#linearGradient917"
       id="linearGradient919"
       x1="945.8985"
       y1="845.7215"
       x2="1056.4454"
       y2="767.5965"
       gradientUnits="userSpaceOnUse"
       gradientTransform="matrix(3.2864421,-0.30902613,0.30902613,3.2864421,-2181.9714,-2033.7926)" />
    <linearGradient
       inkscape:collect="always"
       id="linearGradient917">
      <stop
         style="stop-color:#6ecf3f;stop-opacity:1"
         offset="0"
         id="stop913" />
      <stop
         style="stop-color:#67ca2d;stop-opacity:1"
         offset="1"
         id="stop915" />
    </linearGradient>
    <linearGradient
       y2="767.5965"
       x2="1056.4454"
       y1="845.7215"
       x1="945.8985"
       gradientTransform="matrix(3.2864421,-0.30902613,0.30902613,3.2864421,-4056.0155,-1840.8774)"
       gradientUnits="userSpaceOnUse"
       id="linearGradient4447"
       xlink:href="#linearGradient917"
       inkscape:collect="always" />
    <linearGradient
       inkscape:collect="always"
       xlink:href="#linearGradient3909"
       id="linearGradient4466"
       gradientUnits="userSpaceOnUse"
       gradientTransform="translate(637.14,-17.143)"
       x1="-698.34003"
       y1="474.16"
       x2="-476.01001"
       y2="474.16" />
  </defs>
  <sodipodi:namedview
     id="base"
     bordercolor="#666666"
     inkscape:pageshadow="2"
     inkscape:window-y="0"
     fit-margin-left="20"
     pagecolor="#6b6b6b"
     fit-margin-top="20"
     inkscape:window-maximized="0"
     inkscape:zoom="0.9899495"
     inkscape:window-x="46"
     inkscape:window-height="1110"
     showgrid="false"
     borderopacity="1.0"
     inkscape:current-layer="layer1"
     inkscape:cx="405.42551"
     inkscape:cy="347.55534"
     fit-margin-right="20"
     fit-margin-bottom="20"
     inkscape:window-width="1538"
     inkscape:pageopacity="1"
     inkscape:document-units="px" />
  <g
     id="layer1"
     inkscape:label="Layer 1"
     inkscape:groupmode="layer"
     transform="translate(949.31076,-112.34114)">
    <path
       sodipodi:type="arc"
       style="opacity:1;fill:#06afa9;fill-opacity:1;stroke:#10008a;stroke-width:19.40338135000000008;stroke-miterlimit:4;stroke-opacity:1;stroke-dasharray:none;stroke-dashoffset:0"
       id="path4301"
       sodipodi:cx="222.23355"
       sodipodi:cy="358.08926"
       sodipodi:rx="344.46201"
       sodipodi:ry="344.46201"
       d="m 566.69556,358.08926 c 0,190.24112 -154.2209,344.46201 -344.46201,344.46201 -190.241112,0 -344.462,-154.22089 -344.462,-344.46201 0,-190.24111 154.220888,-344.462002 344.462,-344.462002 190.24111,0 344.46201,154.220892 344.46201,344.462002 z"
       transform="matrix(1.0410557,0,0,1.0410557,-791.95647,128.24198)" />
    <path
       inkscape:connector-curvature="0"
       style="fill:#ffffff;stroke:#848484;stroke-width:1.70369995"
       sodipodi:nodetypes="cccsscc"
       d="m -695.11,446.44 c 37.943,-142.01 238.98,-144.34 261.58,0 l 2.8639,328.23 c 0,1.5915 -2.0212,1.5242 -2.8639,2.8727 -29.142,46.634 -231.77,46.101 -261.58,0 -0.86352,-1.3351 -2.8639,-1.2812 -2.8639,-2.8727 z"
       id="rect3115" />
    <path
       transform="matrix(0.65508,0,0,0.6006,-648.39,319.05)"
       inkscape:connector-curvature="0"
       sodipodi:nodetypes="cccsscc"
       clip-path="url(#clipPath3925)"
       d="m -55.959,275.22 c 162.1,128.83 320.04,-74.453 369.06,0 l 4.0406,461.67 c 0,2.2385 -2.8517,2.1439 -4.0406,4.0406 -41.116,65.594 -326.99,64.843 -369.06,0 -1.2183,-1.8779 -4.0406,-1.8021 -4.0406,-4.0406 z"
       style="fill:#add0fd;fill-opacity:1"
       id="path3952" />
    <path
       transform="matrix(0.70878,0,0,0.71096,-656.64,252.2)"
       inkscape:connector-curvature="0"
       sodipodi:nodetypes="cccsscc"
       clip-path="url(#clipPath3925)"
       d="m -55.959,275.22 c 53.533,-199.74 337.18,-203.02 369.06,0 l 4.0406,461.67 c 0,2.2385 -2.8517,2.1439 -4.0406,4.0406 -41.116,65.594 -326.99,64.843 -369.06,0 -1.2183,-1.8779 -4.0406,-1.8021 -4.0406,-4.0406 z"
       style="opacity:0.61062;fill:url(#linearGradient4466);stroke:#5a5a5a;stroke-width:5;filter:url(#filter3917)"
       id="path3907" />
    <path
       inkscape:connector-curvature="0"
       style="fill:#070107;stroke:#0f0f0f;stroke-width:1.54830003"
       sodipodi:nodetypes="sssssssss"
       d="m -593.86,301.35 c 20.222,5.3932 41.595,7.9244 67.175,0 1.4861,-0.46037 2.8639,1.0582 2.8639,2.3726 v 48.94 c 0,1.3144 -1.2896,2.2089 -2.8639,2.3726 -25.58,2.6588 -46.953,1.7772 -67.175,0 -1.5777,-0.13867 -2.8639,-1.0582 -2.8639,-2.3726 v -48.94 c 0,-1.3144 1.3536,-2.7754 2.8639,-2.3726 z"
       id="rect3886" />
    <path
       inkscape:connector-curvature="0"
       style="fill:#939093;stroke:#555555;stroke-width:1.52859998"
       d="m -571.58,225.03 h 18.573 c 1.5866,0 2.8639,1.0315 2.8639,2.3127 v 68.964 c 0,1.2812 -1.2773,2.3127 -2.8639,2.3127 h -18.573 c -1.5866,0 -2.8639,-1.0315 -2.8639,-2.3127 v -68.964 c 0,-1.2812 1.2773,-2.3127 2.8639,-2.3127 z"
       id="rect3889" />
    <rect
       x="-580.52002"
       y="204.72"
       width="36.451"
       height="30.469999"
       ry="2.8727"
       style="fill:#939093;stroke:#555555;stroke-width:1.70369995"
       id="rect3892" />
    <path
       inkscape:connector-curvature="0"
       style="fill:#939093;stroke:#555555;stroke-width:1.85749996"
       sodipodi:nodetypes="ccccc"
       d="m -591.64,188.62 c 43.017,5.2642 78.542,-16.001 117.08,14.695 6.1747,2.2206 12.434,18.016 11.523,23.186 -36.624,-31.874 -93.83,-10.82 -132.85,-13.77 -4.7878,-2.8045 -1.939,-24.727 4.2498,-24.11 z"
       id="rect3894" />
    <path
       inkscape:connector-curvature="0"
       style="fill:#939093;stroke:#555555;stroke-width:1.70369995"
       sodipodi:nodetypes="ccssscc"
       d="m -581.71,277.84 c 9.507,2.5327 48.569,-4.1088 48.848,5.1505 l 13.091,18.384 c 0.92219,1.295 -1.354,2.3838 -2.8639,2.8727 -25.092,8.1252 -50.183,8.1252 -75.275,0 -1.5099,-0.48892 -3.8072,-1.593 -2.8639,-2.8727 7.1242,-3.375 11.222,-24.294 19.064,-23.534 z"
       id="rect3897" />
    <path
       inkscape:connector-curvature="0"
       style="fill:#fefefe;stroke:#5a5a5a;stroke-width:3.49819994"
       sodipodi:nodetypes="sccccs"
       d="m -676.24,537.95 c 86.023,18.525 200.5,5.0889 219.48,0 0,0 5.687,109.78 3.3314,111.25 -15.916,20.318 -192.52,17.666 -222.81,2.3989 0,0 5.0995,-113.17 2.7438,-111.25 0,-1.329 -4.512,-2.7797 -2.7438,-2.3989 z"
       id="rect3931" />
    <path
       inkscape:connector-curvature="0"
       style="fill:#fefefe"
       sodipodi:nodetypes="sssss"
       d="m -481.29,446.44 c 0,2.2437 -36.025,14.219 -77.965,14.219 -41.941,0 -73.915,-11.975 -73.915,-14.219 0,-2.2437 34,4.0626 75.94,4.0626 41.941,0 75.94,-6.3064 75.94,-4.0626 z"
       id="path3939" />
    <rect
       x="-528.57001"
       y="109.51"
       width="8.5713997"
       height="45.714001"
       transform="matrix(0.70878,0,0,0.71096,-203.86,238.58)"
       style="fill:#fefefe;filter:url(#filter3948)"
       ry="2.3089001"
       id="rect3942" />
    <path
       inkscape:connector-curvature="0"
       style="fill:#add0fd;fill-opacity:1"
       sodipodi:nodetypes="ssscs"
       d="m -453.55,268.7 c 5.8117,14.683 -4.722,29.454 -10.547,29.454 -5.8249,0 -16.39,-14.789 -10.547,-29.454 6.7116,-16.845 10.547,-29.454 10.547,-29.454 0,0 4.794,14.92 10.547,29.454 z"
       id="path3956" />
    <g
       transform="matrix(0.15941384,0,0,0.15647967,-413.1931,524.13888)"
       id="g3782">
      <path
         sodipodi:cx="-640"
         sodipodi:cy="332.36218"
         inkscape:transform-center-y="-177.14286"
         d="m -568.57143,332.36218 c 0,88.36556 -31.97966,160 -71.42857,160 -39.44891,0 -71.42857,-71.63444 -71.42857,-160 0,-88.36556 31.97966,-160 71.42857,-160 39.44891,0 71.42857,71.63444 71.42857,160 z"
         sodipodi:type="arc"
         style="fill:#07e221;fill-opacity:1"
         sodipodi:ry="160"
         sodipodi:rx="71.428574"
         id="path3784" />
      <path
         sodipodi:cx="-640"
         sodipodi:cy="332.36218"
         transform="matrix(0.052999,0.99859,-0.99859,0.052999,-97.291,1121.6)"
         inkscape:transform-center-y="-9.3884683"
         inkscape:transform-center-x="-176.89389"
         d="m -568.57143,332.36218 c 0,88.36556 -31.97966,160 -71.42857,160 -39.44891,0 -71.42857,-71.63444 -71.42857,-160 0,-88.36556 31.97966,-160 71.42857,-160 39.44891,0 71.42857,71.63444 71.42857,160 z"
         sodipodi:type="arc"
         style="fill:#07e221;fill-opacity:0.91372549"
         sodipodi:ry="160"
         sodipodi:rx="71.428574"
         id="path3786" />
      <path
         sodipodi:cx="-640"
         sodipodi:cy="332.36218"
         transform="matrix(-0.99999,0.003233,-0.003233,-0.99999,-1278.3,1021.1)"
         inkscape:transform-center-y="177.14188"
         inkscape:transform-center-x="-0.57272596"
         d="m -568.57143,332.36218 c 0,88.36556 -31.97966,160 -71.42857,160 -39.44891,0 -71.42857,-71.63444 -71.42857,-160 0,-88.36556 31.97966,-160 71.42857,-160 39.44891,0 71.42857,71.63444 71.42857,160 z"
         sodipodi:type="arc"
         style="fill:#07e221;fill-opacity:0.91372549"
         sodipodi:ry="160"
         sodipodi:rx="71.428574"
         id="path3788" />
      <path
         sodipodi:cx="-640"
         sodipodi:cy="332.36218"
         transform="matrix(-0.038671,-0.99925,0.99925,-0.038671,-1173.9,-110.31)"
         inkscape:transform-center-y="6.8503935"
         inkscape:transform-center-x="177.01031"
         d="m -568.57143,332.36218 c 0,88.36556 -31.97966,160 -71.42857,160 -39.44891,0 -71.42857,-71.63444 -71.42857,-160 0,-88.36556 31.97966,-160 71.42857,-160 39.44891,0 71.42857,71.63444 71.42857,160 z"
         sodipodi:type="arc"
         style="fill:#07e221;fill-opacity:0.91372549"
         sodipodi:ry="160"
         sodipodi:rx="71.428574"
         id="path3790" />
      <path
         sodipodi:cx="-640"
         sodipodi:cy="332.36218"
         transform="matrix(0.66584,-0.74609,0.74609,0.66584,-594,-307.24)"
         inkscape:transform-center-y="-117.94935"
         inkscape:transform-center-x="132.16478"
         d="m -568.57143,332.36218 c 0,88.36556 -31.97966,160 -71.42857,160 -39.44891,0 -71.42857,-71.63444 -71.42857,-160 0,-88.36556 31.97966,-160 71.42857,-160 39.44891,0 71.42857,71.63444 71.42857,160 z"
         sodipodi:type="arc"
         style="fill:#07e221;fill-opacity:0.91372549"
         sodipodi:ry="160"
         sodipodi:rx="71.428574"
         id="path3792" />
      <path
         sodipodi:cx="-640"
         sodipodi:cy="332.36218"
         transform="matrix(0.65538,0.7553,-0.7553,0.65538,164.27,658.98)"
         inkscape:transform-center-y="-116.09576"
         inkscape:transform-center-x="-133.79593"
         d="m -568.57143,332.36218 c 0,88.36556 -31.97966,160 -71.42857,160 -39.44891,0 -71.42857,-71.63444 -71.42857,-160 0,-88.36556 31.97966,-160 71.42857,-160 39.44891,0 71.42857,71.63444 71.42857,160 z"
         sodipodi:type="arc"
         style="fill:#07e221;fill-opacity:0.91372549"
         sodipodi:ry="160"
         sodipodi:rx="71.428574"
         id="path3794" />
      <path
         sodipodi:cx="-640"
         sodipodi:cy="332.36218"
         transform="matrix(-0.68918,0.72459,-0.72459,-0.68918,-711.89,1324.4)"
         inkscape:transform-center-y="122.08246"
         inkscape:transform-center-x="-128.35669"
         d="m -568.57143,332.36218 c 0,88.36556 -31.97966,160 -71.42857,160 -39.44891,0 -71.42857,-71.63444 -71.42857,-160 0,-88.36556 31.97966,-160 71.42857,-160 39.44891,0 71.42857,71.63444 71.42857,160 z"
         sodipodi:type="arc"
         style="fill:#07e221;fill-opacity:0.91372549"
         sodipodi:ry="160"
         sodipodi:rx="71.428574"
         id="path3796" />
      <path
         sodipodi:cx="-640"
         sodipodi:cy="332.36218"
         transform="matrix(-0.71186,-0.70232,0.70232,-0.71186,-1453.4,422.72)"
         inkscape:transform-center-y="126.10121"
         inkscape:transform-center-x="124.41078"
         d="m -568.57143,332.36218 c 0,88.36556 -31.97966,160 -71.42857,160 -39.44891,0 -71.42857,-71.63444 -71.42857,-160 0,-88.36556 31.97966,-160 71.42857,-160 39.44891,0 71.42857,71.63444 71.42857,160 z"
         sodipodi:type="arc"
         style="fill:#07e221;fill-opacity:0.91372549"
         sodipodi:ry="160"
         sodipodi:rx="71.428574"
         id="path3798" />
      <path
         sodipodi:cx="-367.14285"
         sodipodi:cy="158.07646"
         transform="matrix(1,0,0,1.1033,-271.43,345.46)"
         d="m -294.28571,158.07646 c 0,36.293 -32.61926,65.71429 -72.85714,65.71429 -40.23789,0 -72.85714,-29.42129 -72.85714,-65.71429 0,-36.293 32.61925,-65.714285 72.85714,-65.714285 40.23788,0 72.85714,29.421285 72.85714,65.714285 z"
         sodipodi:type="arc"
         style="fill:#fcf5f8;fill-opacity:0.91373004"
         sodipodi:ry="65.714287"
         sodipodi:rx="72.85714"
         id="path3800" />
    </g>
    <path
       style="fill:url(#linearGradient4447);fill-opacity:1;stroke:#5a8b31;stroke-width:19.80563354;stroke-linecap:round;stroke-linejoin:round;stroke-miterlimit:4;stroke-opacity:1;stroke-dasharray:none;stroke-dashoffset:220.00001526"
       d="m -784.66895,458.00028 c 44.7812,39.25864 88.8135,79.06792 125.64641,124.17272 94.6393,-119.025 202.2534,-227.73183 324.7565,-306.39703 l 19.9989,143.82016 c -130.5332,49.22948 -246.6684,135.11296 -338.6641,282.44999 -51.54271,-64.24268 -96.13081,-130.61975 -194.40561,-180.52042 z"
       id="path911"
       inkscape:connector-curvature="0"
       sodipodi:nodetypes="ccccccc" />
  </g>
  <metadata
     id="metadata3498">
    <rdf:RDF>
      <cc:Work>
        <dc:format>image/svg+xml</dc:format>
        <dc:type
           rdf:resource="http://purl.org/dc/dcmitype/StillImage" />
        <cc:license
           rdf:resource="http://creativecommons.org/licenses/publicdomain/" />
        <dc:publisher>
          <cc:Agent
             rdf:about="http://openclipart.org/">
            <dc:title>Openclipart</dc:title>
          </cc:Agent>
        </dc:publisher>
        <dc:title />
        <dc:date>2011-03-08T03:09:31</dc:date>
        <dc:description>An Inkscape drawing of pink liquid soap in a glass dispenser.</dc:description>
        <dc:source>https://openclipart.org/detail/126169/pink-liquid-soap-by-laurianne</dc:source>
        <dc:creator>
          <cc:Agent>
            <dc:title>laurianne</dc:title>
          </cc:Agent>
        </dc:creator>
        <dc:subject>
          <rdf:Bag>
            <rdf:li>Inkscape</rdf:li>
            <rdf:li>SVG</rdf:li>
            <rdf:li>Soap</rdf:li>
            <rdf:li>bath</rdf:li>
            <rdf:li>bathroom</rdf:li>
            <rdf:li>clean</rdf:li>
            <rdf:li>dispenser</rdf:li>
            <rdf:li>drip</rdf:li>
            <rdf:li>glass</rdf:li>
            <rdf:li>household bathe</rdf:li>
            <rdf:li>kitchen</rdf:li>
            <rdf:li>label</rdf:li>
            <rdf:li>liquid</rdf:li>
            <rdf:li>pink</rdf:li>
            <rdf:li>pump</rdf:li>
            <rdf:li>sink</rdf:li>
            <rdf:li>wash</rdf:li>
          </rdf:Bag>
        </dc:subject>
      </cc:Work>
      <cc:License
         rdf:about="http://creativecommons.org/licenses/publicdomain/">
        <cc:permits
           rdf:resource="http://creativecommons.org/ns#Reproduction" />
        <cc:permits
           rdf:resource="http://creativecommons.org/ns#Distribution" />
        <cc:permits
           rdf:resource="http://creativecommons.org/ns#DerivativeWorks" />
      </cc:License>
    </rdf:RDF>
  </metadata>
</svg>
